<svg viewBox="68.1 211.8 737.9999 171.7" width="738" height="171.7" xmlns="http://www.w3.org/2000/svg"> <defs><style>.st0{fill:#2E333A}.st1{fill:#FFDB93}.st2{fill:#E5A900}.st3{fill:#ABADB0}.st4{fill:#585C61}</style></defs> <g> <path class="st0" d="M291.5,254.4h19.4v8.1h-19.4v21.3H283v-49.5h29.3v8.1h-20.8V254.4z"></path> <path class="st0" d="M349.5,250.3v33.5h-7.8v-4.4c0,0-2.9,5.2-10.1,5.2c-8.7,0-16.3-7.3-16.3-17.6c0-10.3,7.6-17.6,16.3-17.6 c7,0,10.1,5.2,10.1,5.2v-4.4H349.5z M341,262c0,0-2.5-4.7-7.9-4.7c-5.7,0-9.3,4.2-9.3,9.7c0,5.5,3.5,9.7,9.3,9.7 c5.4,0,7.9-4.7,7.9-4.7V262z"></path> <path class="st0" d="M372.1,284.6c-8.7,0-16.3-7.3-16.3-17.6c0-10.3,7.6-17.6,16.3-17.6c7,0,10.1,5.2,10.1,5.2v-4.4h7.8V284 c0,11.7-8.6,16.8-18,16.8c-9.6,0-15.9-6.4-15.9-6.4l4.8-6.5c0,0,4.7,4.9,11.1,4.9c6.6,0,9.5-3.6,9.5-8.6v-4 C380.4,281.7,377.4,284.6,372.1,284.6z M381.5,262c0,0-2.4-4.7-8-4.7c-5.7,0-9.2,4.2-9.2,9.7c0,5.5,3.5,9.7,9.2,9.7 c5.5,0,8-4.7,8-4.7V262z"></path> <path class="st0" d="M401.1,272.4c0,0,4.5,4.8,10.1,4.8c3.5,0,6.4-1,6.4-3c0-2.2-1.6-2.6-6.6-3.7c-6.6-1.4-12.4-4.2-12.4-10.6 c0-5.2,5.2-10.5,14.4-10.5c7.6,0,12.6,4.1,12.6,4.1l-4.2,6.2c0,0-3.8-2.9-8.3-2.9c-3.2,0-6.1,1.1-6.1,3.2c0,2,2.3,2.5,7.9,3.7 c6.6,1.4,11.4,3.6,11.4,10.5c0,5.7-6.1,10.3-14.6,10.3c-9.8,0-15.1-6.1-15.1-6.1L401.1,272.4z"></path> <path class="st0" d="M442.1,263.5l12-13.2h11l-14.7,15.8l15.7,17.7h-11.2l-12.8-14.6v14.6h-8.5v-53.4h8.5V263.5z"></path> <path class="st0" d="M502.5,267c0,9.8-7.9,17.6-17.9,17.6c-10,0-17.9-7.8-17.9-17.6c0-9.9,7.9-17.6,17.9-17.6 C494.6,249.4,502.5,257.1,502.5,267z M493.9,267c0-5.2-3.5-9.7-9.3-9.7s-9.3,4.5-9.3,9.7c0,5.2,3.5,9.7,9.3,9.7 S493.9,272.2,493.9,267z"></path> <path class="st0" d="M509.7,230.3h8.5v53.4h-8.5V230.3z"></path> <path class="st0" d="M559.1,266.9c0,0.6,0,1.9-0.1,3.2h-25c0.6,3,4.1,6.8,9.4,6.8c5.9,0,9.2-3.4,9.2-3.4l4.2,6.4 c0,0-5.3,4.8-13.4,4.8c-10.2,0-18-7.8-18-17.6c0-9.8,7.1-17.6,16.8-17.6C551.4,249.4,559.1,256.5,559.1,266.9z M550.6,263.9 c-0.1-2.9-2.8-6.8-8.4-6.8c-5.4,0-7.9,3.8-8.2,6.8H550.6z"></path> <path class="st0" d="M595.6,262.1v21.7h-8.5v-19.6c0-4.8-3-6.9-6.6-6.9c-4.4,0-6.6,4.3-6.6,4.3v22.1h-8.5v-33.5h7.9v4.9 c0,0,3-5.7,10-5.7C589.8,249.4,595.6,254,595.6,262.1z"></path> </g> <path class="st1" d="M92.9,261.4c-13.7,0-24.8-11.1-24.8-24.8c0-13.7,11.1-24.8,24.8-24.8h121.6c13.7,0,24.8,11.1,24.8,24.8 c0,13.7-11.1,24.8-24.8,24.8H92.9z"></path> <circle class="st2" cx="214.5" cy="236.6" r="24.8"></circle> <path class="st3" d="M92.9,322.5c-13.7,0-24.8-11.1-24.8-24.8s11.1-24.8,24.8-24.8h59.8c13.7,0,24.8,11.1,24.8,24.8 s-11.1,24.8-24.8,24.8H92.9z"></path> <circle class="st4" cx="152.7" cy="297.6" r="24.8"></circle> <circle class="st4" cx="92.9" cy="358.7" r="24.8"></circle> <g> <g> <path class="st0" d="M595,313.9h-12.4V311h27.9v2.8h-12.4v38.4H595V313.9z"></path> <path class="st0" d="M635.8,338.8c0,0.5,0,0.6-0.1,1.2h-23.1c0.2,4.1,3.6,9.9,10.7,9.9c4.1,0,7.4-2.3,9.2-4.6l2.1,2.1 c-2.6,3.1-6.8,5.5-11.2,5.5c-8,0-13.8-6.5-13.8-14.1c0-7.6,5.2-14.1,13.2-14.1C629.9,324.7,635.8,330.6,635.8,338.8z M632.6,337.2 c-0.1-3.1-2.8-9.5-9.8-9.5c-7.5,0-10,6.6-10.1,9.5H632.6z"></path> <path class="st0" d="M643.2,307.7h2.9v44.5h-3.1L643.2,307.7z"></path> <path class="st0" d="M679.7,338.8c0,0.5,0,0.6-0.1,1.2h-23.1c0.2,4.1,3.6,9.9,10.7,9.9c4.1,0,7.4-2.3,9.2-4.6l2.1,2.1 c-2.6,3.1-6.8,5.5-11.2,5.5c-8,0-13.8-6.5-13.8-14.1c0-7.6,5.2-14.1,13.2-14.1C673.8,324.7,679.7,330.6,679.7,338.8z M676.5,337.2 c-0.1-3.1-2.8-9.5-9.8-9.5c-7.5,0-10,6.6-10.1,9.5H676.5z"></path> <path class="st0" d="M706.1,352.3H703v-16.7c0-5.5-2.5-7.8-6.5-7.8c-5.1,0-7.4,5.2-7.4,5.2v19.4H686v-26.8h2.8v4.5 c0,0,2.4-5.2,8.4-5.2c3.3,0,6.5,1.5,8.1,5.2c0.2-0.4,2.6-5.2,8.6-5.2c4.1,0,8.9,2.4,8.9,9.9v17.7h-3.1v-16.7 c0-5.5-2.5-7.8-6.5-7.8c-5.1,0-7.1,5.2-7.1,5.2V352.3z"></path> <path class="st0" d="M755.2,325.4v26.8h-2.8v-4.9c0,0-3.1,5.7-10.1,5.7c-7.4,0-13.2-5.8-13.2-14.1c0-8.4,5.8-14.1,13.2-14.1 c7,0,10.1,5.7,10.1,5.7v-4.9H755.2z M752.2,333.9c0,0-2.9-6.2-9.7-6.2c-6,0-10.1,4.9-10.1,11.1c0,6.2,4.1,11.1,10.1,11.1 c6.8,0,9.7-6.2,9.7-6.2V333.9z"></path> <path class="st0" d="M778.5,325.4l-1.3,2.9c0,0-1.1-0.6-3.6-0.6c-4.7,0-6.8,5.2-6.8,5.2v19.4h-3.1v-26.8h2.8v4.4 c0,0,2.3-5.1,7.8-5.1C776.8,324.7,778.5,325.4,778.5,325.4z"></path> <path class="st0" d="M787.1,338.8v13.4H784v-44.5h3.1v30l13.4-12.3h4.3l-14,12.8l15.3,14h-4.5L787.1,338.8z"></path> </g> <g> <path class="st0" d="M302.1,353.4L284.9,311h3.3l14,35l14-35h3.2L302.1,353.4z"></path> <path class="st0" d="M344.7,338.8c0,0.5,0,0.6-0.1,1.2h-23.1c0.2,4.1,3.6,9.9,10.7,9.9c4.1,0,7.4-2.3,9.2-4.6l2.1,2.1 c-2.6,3.1-6.8,5.5-11.2,5.5c-8,0-13.8-6.5-13.8-14.1c0-7.6,5.2-14.1,13.2-14.1C338.8,324.7,344.7,330.6,344.7,338.8z M341.5,337.2 c-0.1-3.1-2.8-9.5-9.8-9.5c-7.5,0-10,6.6-10.1,9.5H341.5z"></path> <path class="st0" d="M351.4,345.2c0,0,2.7,4.8,9.1,4.8c2.9,0,7-1.2,7-4.7c0-3.1-3.3-4-7.5-4.9c-5.9-1.3-9.5-3.5-9.5-8 c0-3.8,3.6-7.6,9.5-7.6c6.3,0,9.6,3.8,9.6,3.8l-2,2.2c0,0-2.8-3-7.6-3c-3.7,0-6.4,1.8-6.4,4.6c0,3.3,3.5,4.2,8.1,5.2 c5,1.1,9,2.9,9,7.7c0,5.1-5.1,7.7-10.2,7.7c-7.9,0-11.5-5.7-11.5-5.7L351.4,345.2z"></path> <path class="st0" d="M374.8,325.4h5.8v-8.7h3.1v8.7h9.1v2.8h-9.1v16.2c0,3,1.1,5.5,4.7,5.5c2.1,0,4-1.2,4-1.2l1.2,2.6 c0,0-2.6,1.6-5.3,1.6c-5.2,0-7.7-3.5-7.7-7.9v-16.8h-5.8V325.4z"></path> <path class="st0" d="M396.7,325.4h5.8v-10.5c0-5.1,3.7-7.8,7.4-7.8c1.6,0,3,0.2,5.1,1.3l-1.3,2.6c0,0-1.6-0.9-3.4-0.9 c-3.5,0-4.7,2.4-4.7,5.7v9.7h7.1v2.8h-7.1v24h-3.1v-24h-5.8V325.4z"></path> <path class="st0" d="M443.4,338.8c0,7.8-5.7,14.1-13.7,14.1c-8,0-13.7-6.4-13.7-14.1c0-7.8,5.7-14.1,13.7-14.1 C437.7,324.7,443.4,331.1,443.4,338.8z M440.2,338.8c0-6.1-3.8-11.1-10.5-11.1c-6.7,0-10.5,5.1-10.5,11.1 c0,6.1,3.8,11.1,10.5,11.1C436.4,350,440.2,344.9,440.2,338.8z"></path> <path class="st0" d="M450.8,307.7h2.9v44.5h-3.1L450.8,307.7z"></path> <path class="st0" d="M484.3,352.3v-4.9c0,0-3.1,5.7-9.9,5.7c-7.5,0-13.4-5.8-13.4-14.1c0-8.4,5.9-14.1,13.4-14.1 c5.9,0,9,4.2,9.7,5.2v-22.2h3v44.5H484.3z M484,333.9c0,0-2.9-6.2-9.7-6.2c-6,0-10.2,4.9-10.2,11.1c0,6.2,4.2,11.1,10.2,11.1 c6.7,0,9.7-6.2,9.7-6.2V333.9z"></path> </g> <g> <path class="st0" d="M537.6,338.7c0,7.7-5.6,14.1-13.6,14.1c-8,0-13.6-6.3-13.6-14.1s5.6-14.1,13.6-14.1 C531.9,324.6,537.6,330.9,537.6,338.7z M534.4,338.7c0-6-3.8-11.1-10.4-11.1c-6.7,0-10.4,5-10.4,11.1c0,6,3.8,11.1,10.4,11.1 C530.7,349.7,534.4,344.7,534.4,338.7z"></path> <path class="st0" d="M567.8,325.3v27.4c0,8.4-5.3,13.5-13.1,13.5c-7.9,0-12.3-5.5-12.3-5.5l2.1-2.2c0,0,3.4,4.6,10.2,4.6 c6.9,0,10-4.5,10-10.4v-5.2c-0.9,1.2-3.8,5.2-9.7,5.2c-7.4,0-13.2-5.7-13.2-14.1s5.9-14.1,13.2-14.1c7,0,10,5.6,10,5.6v-4.9H567.8 z M564.7,333.8c0,0-2.8-6.2-9.7-6.2c-6,0-10.1,4.9-10.1,11.1c0,6.2,4.1,11.1,10.1,11.1c6.9,0,9.7-6.2,9.7-6.2V333.8z"></path> </g> </g> </svg>